<?xml version="1.0" encoding="utf-8"?>
<!-- Generator: Adobe Illustrator 16.0.0, SVG Export Plug-In . SVG Version: 6.00 Build 0)  -->
<!DOCTYPE svg PUBLIC "-//W3C//DTD SVG 1.1//EN" "http://www.w3.org/Graphics/SVG/1.1/DTD/svg11.dtd">
<svg version="1.1" id="Layer_1" xmlns="http://www.w3.org/2000/svg" xmlns:xlink="http://www.w3.org/1999/xlink" x="0px" y="0px"
	 width="480px" height="480px" viewBox="0 0 480 480" enable-background="new 0 0 480 480" xml:space="preserve">
<circle fill="#1F3566" cx="240" cy="240" r="236"/>
<g>
	<rect x="83.334" y="153" fill="none" width="411" height="220"/>
	<path opacity="0.5" fill="#FFFFFF" d="M201.164,253.523l31.11,9.863c-4.77,17.344-12.701,30.227-23.793,38.645
		c-11.095,8.42-25.168,12.629-42.222,12.629c-21.103,0-38.446-7.209-52.031-21.627c-13.587-14.416-20.379-34.125-20.379-59.13
		c0-26.449,6.829-46.991,20.487-61.625s31.615-21.951,53.874-21.951c19.438,0,35.229,5.745,47.37,17.235
		c7.226,6.793,12.646,16.549,16.26,29.268l-31.761,7.588c-1.88-8.238-5.8-14.742-11.761-19.512
		c-5.963-4.77-13.208-7.154-21.734-7.154c-11.78,0-21.338,4.228-28.671,12.683c-7.335,8.455-11.002,22.15-11.002,41.083
		c0,20.091,3.613,34.4,10.84,42.925c7.226,8.529,16.62,12.791,28.184,12.791c8.526,0,15.861-2.709,22.005-8.129
		C194.081,273.686,198.489,265.158,201.164,253.523z"/>
</g>
<g>
	<rect x="234.001" y="153" fill="none" width="410.999" height="220"/>
	<path opacity="0.5" fill="#FFFFFF" d="M250.261,153.038h63.521c12.574,0,21.951,0.525,28.129,1.572
		c6.18,1.048,11.707,3.235,16.586,6.558c4.877,3.325,8.942,7.75,12.194,13.279s4.878,11.726,4.878,18.59
		c0,7.444-2.006,14.273-6.016,20.487c-4.012,6.216-9.45,10.877-16.314,13.983c9.683,2.818,17.127,7.625,22.33,14.417
		c5.203,6.794,7.805,14.779,7.805,23.957c0,7.227-1.68,14.254-5.041,21.082c-3.359,6.83-7.95,12.287-13.766,16.369
		c-5.818,4.084-12.991,6.596-21.518,7.533c-5.349,0.58-18.248,0.941-38.698,1.084h-54.091V153.038z M282.347,179.487v36.747h21.029
		c12.501,0,20.271-0.18,23.306-0.542c5.491-0.65,9.81-2.547,12.954-5.691c3.143-3.144,4.715-7.28,4.715-12.412
		c0-4.914-1.355-8.906-4.064-11.978c-2.711-3.071-6.74-4.932-12.087-5.583c-3.181-0.361-12.322-0.542-27.425-0.542H282.347z
		 M282.347,242.684v42.492h29.701c11.562,0,18.896-0.326,22.005-0.977c4.77-0.867,8.653-2.98,11.653-6.342
		c2.997-3.359,4.498-7.857,4.498-13.494c0-4.77-1.157-8.816-3.469-12.141c-2.313-3.324-5.655-5.746-10.027-7.264
		c-4.373-1.518-13.857-2.275-28.454-2.275H282.347z"/>
</g>
<g>
</g>
<g>
</g>
<g>
</g>
<g>
</g>
<g>
</g>
<g>
</g>
</svg>
